<svg fill="#000000" xmlns="http://www.w3.org/2000/svg"  viewBox="0 0 72 72" width="48px" height="48px" baseProfile="basic"><path d="M24.445,43.857H18.1c-0.382,0-0.668-0.173-0.827-0.429c-0.168-0.272-0.178-0.624,0-0.966l6.743-11.823	c0.006-0.016,0.006-0.02,0-0.036l-4.29-7.379c-0.181-0.349-0.206-0.695-0.038-0.966c0.159-0.262,0.481-0.399,0.863-0.399h6.347	c0.973,0,1.45,0.625,1.765,1.186c0,0,4.339,7.516,4.364,7.559c-0.256,0.451-6.85,12.036-6.85,12.036	C25.853,43.221,25.394,43.857,24.445,43.857z"/><path d="M54.722,15.384L40.673,40.226c-0.008,0.017-0.008,0.03,0,0.041l8.945,16.349c0.176,0.352,0.184,0.707,0.014,0.979	C49.468,57.855,49.175,58,48.79,58h-6.338c-0.97,0-1.458-0.644-1.771-1.212c0,0-8.995-16.497-9.018-16.539	C32.112,39.454,45.78,15.21,45.78,15.21C46.12,14.6,46.535,14,47.479,14h6.415c0.38,0,0.682,0.143,0.842,0.407	C54.902,14.677,54.896,15.031,54.722,15.384z"/></svg>